{
	"asset":{
		"generator":"Khronos glTF Blender I/O v3.5.30",
		"version":"2.0"
	},
	"scene":0,
	"scenes":[
		{
			"name":"Scene",
			"nodes":[
				0
			]
		}
	],
	"nodes":[
		{
			"mesh":0,
			"name":"Sphere"
		}
	],
	"materials":[
		{
			"doubleSided":true,
			"name":"green",
			"pbrMetallicRoughness":{
				"baseColorFactor":[
					0.06892059743404388,
					0.8000000715255737,
					0.006876235827803612,
					1
				],
				"metallicRoughnessTexture":{
					"index":0
				}
			}
		},
		{
			"doubleSided":true,
			"name":"grey",
			"pbrMetallicRoughness":{
				"baseColorFactor":[
					0.800000011920929,
					0.800000011920929,
					0.800000011920929,
					1
				],
				"metallicRoughnessTexture":{
					"index":1
				}
			}
		}
	],
	"meshes":[
		{
			"name":"Sphere",
			"primitives":[
				{
					"attributes":{
						"POSITION":0,
						"TEXCOORD_0":1,
						"NORMAL":2
					},
					"indices":3,
					"material":0
				},
				{
					"attributes":{
						"POSITION":4,
						"TEXCOORD_0":5,
						"NORMAL":6
					},
					"indices":7,
					"material":1
				}
			]
		}
	],
	"textures":[
		{
			"sampler":0,
			"source":0
		},
		{
			"sampler":0,
			"source":1
		}
	],
	"images":[
		{
			"bufferView":4,
			"mimeType":"image/png",
			"name":"check"
		},
		{
			"bufferView":9,
			"mimeType":"image/png",
			"name":"zebra"
		}
	],
	"accessors":[
		{
			"bufferView":0,
			"componentType":5126,
			"count":296,
			"max":[
				0.9999997019767761,
				0,
				0.9999993443489075
			],
			"min":[
				-0.9999990463256836,
				-1,
				-1
			],
			"type":"VEC3"
		},
		{
			"bufferView":1,
			"componentType":5126,
			"count":296,
			"type":"VEC2"
		},
		{
			"bufferView":2,
			"componentType":5126,
			"count":296,
			"type":"VEC3"
		},
		{
			"bufferView":3,
			"componentType":5123,
			"count":1440,
			"type":"SCALAR"
		},
		{
			"bufferView":5,
			"componentType":5126,
			"count":296,
			"max":[
				0.9999997019767761,
				1,
				0.9999993443489075
			],
			"min":[
				-0.9999990463256836,
				0,
				-1
			],
			"type":"VEC3"
		},
		{
			"bufferView":6,
			"componentType":5126,
			"count":296,
			"type":"VEC2"
		},
		{
			"bufferView":7,
			"componentType":5126,
			"count":296,
			"type":"VEC3"
		},
		{
			"bufferView":8,
			"componentType":5123,
			"count":1440,
			"type":"SCALAR"
		}
	],
	"bufferViews":[
		{
			"buffer":0,
			"byteLength":3552,
			"byteOffset":0,
			"target":34962
		},
		{
			"buffer":0,
			"byteLength":2368,
			"byteOffset":3552,
			"target":34962
		},
		{
			"buffer":0,
			"byteLength":3552,
			"byteOffset":5920,
			"target":34962
		},
		{
			"buffer":0,
			"byteLength":2880,
			"byteOffset":9472,
			"target":34963
		},
		{
			"buffer":0,
			"byteLength":174,
			"byteOffset":12352
		},
		{
			"buffer":0,
			"byteLength":3552,
			"byteOffset":12528,
			"target":34962
		},
		{
			"buffer":0,
			"byteLength":2368,
			"byteOffset":16080,
			"target":34962
		},
		{
			"buffer":0,
			"byteLength":3552,
			"byteOffset":18448,
			"target":34962
		},
		{
			"buffer":0,
			"byteLength":2880,
			"byteOffset":22000,
			"target":34963
		},
		{
			"buffer":0,
			"byteLength":408,
			"byteOffset":24880
		}
	],
	"samplers":[
		{
			"magFilter":9729,
			"minFilter":9987
		}
	],
	"buffers":[
		{
			"byteLength":25288,
			"uri":"data:application/octet-stream;base64,"
		}
	]
}
